<svg width="700" height="725" viewBox="0 0 700 725" fill="none" xmlns="http://www.w3.org/2000/svg">
<rect y="25" width="700" height="700" rx="140" fill="#FEFEFE"/>
<mask id="path-2-outside-1_4001_2" maskUnits="userSpaceOnUse" x="51" y="192" width="598" height="378" fill="black">
<rect fill="white" x="51" y="192" width="598" height="378"/>
<path d="M72.85 401.8C67.25 401.267 62.45 399.133 58.45 395.4C54.7167 391.4 52.85 386.6 52.85 381C52.85 375.4 54.7167 370.733 58.45 367C62.45 363 67.25 360.733 72.85 360.2C83.25 359.4 90.85 355.4 95.65 348.2C100.717 340.733 103.25 329.267 103.25 313.8V257C103.25 234.067 108.05 217.667 117.65 207.8C127.25 197.933 142.983 193 164.85 193H192.05C197.383 193 201.917 194.867 205.65 198.6C209.383 202.333 211.25 206.867 211.25 212.2C211.25 217.533 209.383 222.2 205.65 226.2C201.917 229.933 197.383 231.8 192.05 231.8H190.05C174.317 231.8 164.183 234.067 159.65 238.6C155.117 243.133 152.85 254.2 152.85 271.8V315.8C152.85 333.133 149.65 346.733 143.25 356.6C137.117 366.2 126.717 374.067 112.05 380.2C111.517 380.2 111.25 380.467 111.25 381C111.25 381.533 111.517 381.8 112.05 381.8C126.717 387.933 137.117 395.933 143.25 405.8C149.65 415.4 152.85 428.867 152.85 446.2V490.2C152.85 507.8 155.117 518.867 159.65 523.4C164.183 527.933 174.317 530.2 190.05 530.2H192.05C197.383 530.2 201.917 532.067 205.65 535.8C209.383 539.8 211.25 544.467 211.25 549.8C211.25 555.133 209.383 559.667 205.65 563.4C201.917 567.133 197.383 569 192.05 569H164.85C142.983 569 127.25 564.067 117.65 554.2C108.05 544.333 103.25 527.933 103.25 505V448.2C103.25 432.733 100.717 421.4 95.65 414.2C90.85 406.733 83.25 402.6 72.85 401.8ZM268.013 499C261.613 497.4 256.413 493.933 252.413 488.6C248.413 483 246.413 476.733 246.413 469.8V465.4C246.413 460.067 248.546 455.933 252.813 453C257.346 450.067 262.146 449.4 267.213 451C284.813 456.867 302.146 459.8 319.213 459.8C336.546 459.8 349.213 454.467 357.213 443.8C365.479 432.867 369.613 414.6 369.613 389V231.8C369.613 225.667 371.879 220.333 376.413 215.8C380.946 211.267 386.279 209 392.413 209H405.213C411.346 209 416.546 211.267 420.813 215.8C425.346 220.333 427.613 225.667 427.613 231.8V399.8C427.613 437.133 419.346 464.067 402.813 480.6C386.279 496.867 359.879 505 323.613 505C303.613 505 285.079 503 268.013 499ZM587.878 381.8C588.411 381.8 588.678 381.533 588.678 381C588.678 380.467 588.411 380.2 587.878 380.2C573.211 374.067 562.678 366.2 556.278 356.6C550.145 346.733 547.078 333.133 547.078 315.8V271.8C547.078 254.2 544.811 243.133 540.278 238.6C535.745 234.067 525.611 231.8 509.878 231.8H507.878C502.545 231.8 498.011 229.933 494.278 226.2C490.545 222.2 488.678 217.533 488.678 212.2C488.678 206.867 490.545 202.333 494.278 198.6C498.011 194.867 502.545 193 507.878 193H535.078C556.945 193 572.678 197.933 582.278 207.8C591.878 217.667 596.678 234.067 596.678 257V313.8C596.678 329.267 599.078 340.733 603.878 348.2C608.945 355.4 616.678 359.4 627.078 360.2C632.678 360.733 637.345 363 641.078 367C645.078 370.733 647.078 375.4 647.078 381C647.078 386.6 645.078 391.4 641.078 395.4C637.345 399.133 632.678 401.267 627.078 401.8C616.678 402.6 608.945 406.733 603.878 414.2C599.078 421.4 596.678 432.733 596.678 448.2V505C596.678 527.933 591.878 544.333 582.278 554.2C572.678 564.067 556.945 569 535.078 569H507.878C502.545 569 498.011 567.133 494.278 563.4C490.545 559.667 488.678 555.133 488.678 549.8C488.678 544.467 490.545 539.8 494.278 535.8C498.011 532.067 502.545 530.2 507.878 530.2H509.878C525.611 530.2 535.745 527.933 540.278 523.4C544.811 518.867 547.078 507.8 547.078 490.2V446.2C547.078 428.867 550.145 415.4 556.278 405.8C562.678 395.933 573.211 387.933 587.878 381.8Z"/>
</mask>
<path d="M72.85 401.8C67.25 401.267 62.45 399.133 58.45 395.4C54.7167 391.4 52.85 386.6 52.85 381C52.85 375.4 54.7167 370.733 58.45 367C62.45 363 67.25 360.733 72.85 360.2C83.25 359.4 90.85 355.4 95.65 348.2C100.717 340.733 103.25 329.267 103.25 313.8V257C103.25 234.067 108.05 217.667 117.65 207.8C127.25 197.933 142.983 193 164.85 193H192.05C197.383 193 201.917 194.867 205.65 198.6C209.383 202.333 211.25 206.867 211.25 212.2C211.25 217.533 209.383 222.2 205.65 226.2C201.917 229.933 197.383 231.8 192.05 231.8H190.05C174.317 231.8 164.183 234.067 159.65 238.6C155.117 243.133 152.85 254.2 152.85 271.8V315.8C152.85 333.133 149.65 346.733 143.25 356.6C137.117 366.2 126.717 374.067 112.05 380.2C111.517 380.2 111.25 380.467 111.25 381C111.25 381.533 111.517 381.8 112.05 381.8C126.717 387.933 137.117 395.933 143.25 405.8C149.65 415.4 152.85 428.867 152.85 446.2V490.2C152.85 507.8 155.117 518.867 159.65 523.4C164.183 527.933 174.317 530.2 190.05 530.2H192.05C197.383 530.2 201.917 532.067 205.65 535.8C209.383 539.8 211.25 544.467 211.25 549.8C211.25 555.133 209.383 559.667 205.65 563.4C201.917 567.133 197.383 569 192.05 569H164.85C142.983 569 127.25 564.067 117.65 554.2C108.05 544.333 103.25 527.933 103.25 505V448.2C103.25 432.733 100.717 421.4 95.65 414.2C90.85 406.733 83.25 402.6 72.85 401.8ZM268.013 499C261.613 497.4 256.413 493.933 252.413 488.6C248.413 483 246.413 476.733 246.413 469.8V465.4C246.413 460.067 248.546 455.933 252.813 453C257.346 450.067 262.146 449.4 267.213 451C284.813 456.867 302.146 459.8 319.213 459.8C336.546 459.8 349.213 454.467 357.213 443.8C365.479 432.867 369.613 414.6 369.613 389V231.8C369.613 225.667 371.879 220.333 376.413 215.8C380.946 211.267 386.279 209 392.413 209H405.213C411.346 209 416.546 211.267 420.813 215.8C425.346 220.333 427.613 225.667 427.613 231.8V399.8C427.613 437.133 419.346 464.067 402.813 480.6C386.279 496.867 359.879 505 323.613 505C303.613 505 285.079 503 268.013 499ZM587.878 381.8C588.411 381.8 588.678 381.533 588.678 381C588.678 380.467 588.411 380.2 587.878 380.2C573.211 374.067 562.678 366.2 556.278 356.6C550.145 346.733 547.078 333.133 547.078 315.8V271.8C547.078 254.2 544.811 243.133 540.278 238.6C535.745 234.067 525.611 231.8 509.878 231.8H507.878C502.545 231.8 498.011 229.933 494.278 226.2C490.545 222.2 488.678 217.533 488.678 212.2C488.678 206.867 490.545 202.333 494.278 198.6C498.011 194.867 502.545 193 507.878 193H535.078C556.945 193 572.678 197.933 582.278 207.8C591.878 217.667 596.678 234.067 596.678 257V313.8C596.678 329.267 599.078 340.733 603.878 348.2C608.945 355.4 616.678 359.4 627.078 360.2C632.678 360.733 637.345 363 641.078 367C645.078 370.733 647.078 375.4 647.078 381C647.078 386.6 645.078 391.4 641.078 395.4C637.345 399.133 632.678 401.267 627.078 401.8C616.678 402.6 608.945 406.733 603.878 414.2C599.078 421.4 596.678 432.733 596.678 448.2V505C596.678 527.933 591.878 544.333 582.278 554.2C572.678 564.067 556.945 569 535.078 569H507.878C502.545 569 498.011 567.133 494.278 563.4C490.545 559.667 488.678 555.133 488.678 549.8C488.678 544.467 490.545 539.8 494.278 535.8C498.011 532.067 502.545 530.2 507.878 530.2H509.878C525.611 530.2 535.745 527.933 540.278 523.4C544.811 518.867 547.078 507.8 547.078 490.2V446.2C547.078 428.867 550.145 415.4 556.278 405.8C562.678 395.933 573.211 387.933 587.878 381.8Z" fill="#232323"/>
<path d="M72.85 401.8L72.7552 402.795L72.7642 402.796L72.7733 402.797L72.85 401.8ZM58.45 395.4L57.7189 396.082L57.7425 396.108L57.7677 396.131L58.45 395.4ZM58.45 367L59.1571 367.707L59.1571 367.707L58.45 367ZM72.85 360.2L72.7733 359.203L72.7642 359.204L72.7552 359.204L72.85 360.2ZM95.65 348.2L94.8225 347.638L94.818 347.645L95.65 348.2ZM205.65 226.2L206.357 226.907L206.369 226.895L206.381 226.882L205.65 226.2ZM159.65 238.6L160.357 239.307L160.357 239.307L159.65 238.6ZM143.25 356.6L142.411 356.056L142.407 356.062L143.25 356.6ZM112.05 380.2V381.2H112.251L112.436 381.123L112.05 380.2ZM112.05 381.8L112.436 380.877L112.251 380.8H112.05V381.8ZM143.25 405.8L142.401 406.328L142.409 406.341L142.418 406.355L143.25 405.8ZM159.65 523.4L158.943 524.107L158.943 524.107L159.65 523.4ZM205.65 535.8L206.381 535.118L206.369 535.105L206.357 535.093L205.65 535.8ZM205.65 563.4L204.943 562.693L205.65 563.4ZM95.65 414.2L94.8088 414.741L94.8201 414.758L94.8322 414.775L95.65 414.2ZM72.85 401.8L72.9448 400.805C67.5578 400.291 62.9662 398.247 59.1323 394.669L58.45 395.4L57.7677 396.131C61.9338 400.019 66.9422 402.242 72.7552 402.795L72.85 401.8ZM58.45 395.4L59.1811 394.718C55.625 390.908 53.85 386.353 53.85 381H52.85H51.85C51.85 386.847 53.8083 391.892 57.7189 396.082L58.45 395.4ZM52.85 381H53.85C53.85 375.647 55.6236 371.241 59.1571 367.707L58.45 367L57.7429 366.293C53.8098 370.226 51.85 375.153 51.85 381H52.85ZM58.45 367L59.1571 367.707C62.9937 363.87 67.5776 361.707 72.9448 361.195L72.85 360.2L72.7552 359.204C66.9224 359.76 61.9063 362.13 57.7429 366.293L58.45 367ZM72.85 360.2L72.9267 361.197C83.563 360.379 91.4761 356.264 96.4821 348.755L95.65 348.2L94.818 347.645C90.2239 354.536 82.937 358.421 72.7733 359.203L72.85 360.2ZM95.65 348.2L96.4775 348.761C101.711 341.048 104.25 329.34 104.25 313.8H103.25H102.25C102.25 329.194 99.722 340.418 94.8225 347.638L95.65 348.2ZM103.25 313.8H104.25V257H103.25H102.25V313.8H103.25ZM103.25 257H104.25C104.25 234.164 109.037 218.086 118.367 208.497L117.65 207.8L116.933 207.103C107.063 217.247 102.25 233.97 102.25 257H103.25ZM117.65 207.8L118.367 208.497C127.693 198.912 143.099 194 164.85 194V193V192C142.867 192 126.807 196.955 116.933 207.103L117.65 207.8ZM164.85 193V194H192.05V193V192H164.85V193ZM192.05 193V194C197.121 194 201.399 195.763 204.943 199.307L205.65 198.6L206.357 197.893C202.434 193.97 197.646 192 192.05 192V193ZM205.65 198.6L204.943 199.307C208.487 202.851 210.25 207.129 210.25 212.2H211.25H212.25C212.25 206.604 210.28 201.816 206.357 197.893L205.65 198.6ZM211.25 212.2H210.25C210.25 217.273 208.484 221.698 204.919 225.518L205.65 226.2L206.381 226.882C210.282 222.702 212.25 217.794 212.25 212.2H211.25ZM205.65 226.2L204.943 225.493C201.399 229.037 197.121 230.8 192.05 230.8V231.8V232.8C197.646 232.8 202.434 230.83 206.357 226.907L205.65 226.2ZM192.05 231.8V230.8H190.05V231.8V232.8H192.05V231.8ZM190.05 231.8V230.8C182.143 230.8 175.597 231.369 170.432 232.524C165.284 233.676 161.403 235.433 158.943 237.893L159.65 238.6L160.357 239.307C162.43 237.234 165.883 235.591 170.868 234.476C175.837 233.365 182.223 232.8 190.05 232.8V231.8ZM159.65 238.6L158.943 237.893C156.468 240.368 154.717 244.502 153.57 250.099C152.418 255.725 151.85 262.965 151.85 271.8H152.85H153.85C153.85 263.035 154.415 255.942 155.53 250.501C156.65 245.031 158.299 241.365 160.357 239.307L159.65 238.6ZM152.85 271.8H151.85V315.8H152.85H153.85V271.8H152.85ZM152.85 315.8H151.85C151.85 333.026 148.667 346.411 142.411 356.056L143.25 356.6L144.089 357.144C150.633 347.056 153.85 333.24 153.85 315.8H152.85ZM143.25 356.6L142.407 356.062C136.419 365.434 126.215 373.193 111.664 379.277L112.05 380.2L112.436 381.123C127.218 374.941 137.814 366.966 144.093 357.138L143.25 356.6ZM112.05 380.2V379.2C111.629 379.2 111.13 379.306 110.743 379.693C110.356 380.08 110.25 380.579 110.25 381H111.25H112.25C112.25 380.887 112.277 380.987 112.157 381.107C112.037 381.227 111.937 381.2 112.05 381.2V380.2ZM111.25 381H110.25C110.25 381.421 110.356 381.92 110.743 382.307C111.13 382.694 111.629 382.8 112.05 382.8V381.8V380.8C111.937 380.8 112.037 380.773 112.157 380.893C112.277 381.013 112.25 381.113 112.25 381H111.25ZM112.05 381.8L111.664 382.723C126.208 388.805 136.411 396.692 142.401 406.328L143.25 405.8L144.099 405.272C137.822 395.174 127.225 387.062 112.436 380.877L112.05 381.8ZM143.25 405.8L142.418 406.355C148.666 415.727 151.85 428.971 151.85 446.2H152.85H153.85C153.85 428.762 150.634 415.073 144.082 405.245L143.25 405.8ZM152.85 446.2H151.85V490.2H152.85H153.85V446.2H152.85ZM152.85 490.2H151.85C151.85 499.035 152.418 506.275 153.57 511.901C154.717 517.498 156.468 521.632 158.943 524.107L159.65 523.4L160.357 522.693C158.299 520.635 156.65 516.969 155.53 511.499C154.415 506.058 153.85 498.965 153.85 490.2H152.85ZM159.65 523.4L158.943 524.107C161.403 526.567 165.284 528.324 170.432 529.476C175.597 530.631 182.143 531.2 190.05 531.2V530.2V529.2C182.223 529.2 175.837 528.635 170.868 527.524C165.883 526.409 162.43 524.766 160.357 522.693L159.65 523.4ZM190.05 530.2V531.2H192.05V530.2V529.2H190.05V530.2ZM192.05 530.2V531.2C197.121 531.2 201.399 532.963 204.943 536.507L205.65 535.8L206.357 535.093C202.434 531.17 197.646 529.2 192.05 529.2V530.2ZM205.65 535.8L204.919 536.482C208.484 540.302 210.25 544.727 210.25 549.8H211.25H212.25C212.25 544.206 210.282 539.298 206.381 535.118L205.65 535.8ZM211.25 549.8H210.25C210.25 554.871 208.487 559.149 204.943 562.693L205.65 563.4L206.357 564.107C210.28 560.184 212.25 555.396 212.25 549.8H211.25ZM205.65 563.4L204.943 562.693C201.399 566.237 197.121 568 192.05 568V569V570C197.646 570 202.434 568.03 206.357 564.107L205.65 563.4ZM192.05 569V568H164.85V569V570H192.05V569ZM164.85 569V568C143.099 568 127.693 563.088 118.367 553.503L117.65 554.2L116.933 554.897C126.807 565.045 142.867 570 164.85 570V569ZM117.65 554.2L118.367 553.503C109.037 543.914 104.25 527.836 104.25 505H103.25H102.25C102.25 528.03 107.063 544.753 116.933 554.897L117.65 554.2ZM103.25 505H104.25V448.2H103.25H102.25V505H103.25ZM103.25 448.2H104.25C104.25 432.665 101.713 421.078 96.4678 413.625L95.65 414.2L94.8322 414.775C99.7202 421.722 102.25 432.802 102.25 448.2H103.25ZM95.65 414.2L96.4912 413.659C91.4909 405.881 83.5772 401.622 72.9267 400.803L72.85 401.8L72.7733 402.797C82.9228 403.578 90.2091 407.586 94.8088 414.741L95.65 414.2ZM268.013 499L267.77 499.97L267.777 499.972L267.784 499.974L268.013 499ZM252.413 488.6L251.599 489.181L251.606 489.191L251.613 489.2L252.413 488.6ZM252.813 453L252.269 452.16L252.258 452.168L252.246 452.176L252.813 453ZM267.213 451L267.529 450.051L267.521 450.049L267.514 450.046L267.213 451ZM357.213 443.8L356.415 443.197L356.413 443.2L357.213 443.8ZM376.413 215.8L375.705 215.093L375.705 215.093L376.413 215.8ZM420.813 215.8L420.084 216.485L420.095 216.496L420.105 216.507L420.813 215.8ZM402.813 480.6L403.514 481.313L403.52 481.307L402.813 480.6ZM268.013 499L268.255 498.03C262.08 496.486 257.076 493.152 253.213 488L252.413 488.6L251.613 489.2C255.749 494.715 261.145 498.314 267.77 499.97L268.013 499ZM252.413 488.6L253.226 488.019C249.348 482.59 247.413 476.527 247.413 469.8H246.413H245.413C245.413 476.94 247.477 483.41 251.599 489.181L252.413 488.6ZM246.413 469.8H247.413V465.4H246.413H245.413V469.8H246.413ZM246.413 465.4H247.413C247.413 460.384 249.393 456.564 253.379 453.824L252.813 453L252.246 452.176C247.698 455.302 245.413 459.749 245.413 465.4H246.413ZM252.813 453L253.356 453.84C257.643 451.065 262.134 450.445 266.911 451.954L267.213 451L267.514 450.046C262.157 448.355 257.048 449.068 252.269 452.16L252.813 453ZM267.213 451L266.896 451.949C284.589 457.846 302.029 460.8 319.213 460.8V459.8V458.8C302.262 458.8 285.036 455.887 267.529 450.051L267.213 451ZM319.213 459.8V460.8C336.757 460.8 349.769 455.391 358.013 444.4L357.213 443.8L356.413 443.2C348.656 453.542 336.334 458.8 319.213 458.8V459.8ZM357.213 443.8L358.01 444.403C366.481 433.2 370.613 414.654 370.613 389H369.613H368.613C368.613 414.546 364.477 432.533 356.415 443.197L357.213 443.8ZM369.613 389H370.613V231.8H369.613H368.613V389H369.613ZM369.613 231.8H370.613C370.613 225.945 372.764 220.862 377.12 216.507L376.413 215.8L375.705 215.093C370.994 219.804 368.613 225.388 368.613 231.8H369.613ZM376.413 215.8L377.12 216.507C381.475 212.152 386.557 210 392.413 210V209V208C386.001 208 380.417 210.381 375.705 215.093L376.413 215.8ZM392.413 209V210H405.213V209V208H392.413V209ZM405.213 209V210C411.065 210 416.003 212.149 420.084 216.485L420.813 215.8L421.541 215.115C417.088 210.384 411.626 208 405.213 208V209ZM420.813 215.8L420.105 216.507C424.461 220.862 426.613 225.945 426.613 231.8H427.613H428.613C428.613 225.388 426.231 219.804 421.52 215.093L420.813 215.8ZM427.613 231.8H426.613V399.8H427.613H428.613V231.8H427.613ZM427.613 399.8H426.613C426.613 437.021 418.366 463.633 402.105 479.893L402.813 480.6L403.52 481.307C420.326 464.501 428.613 437.246 428.613 399.8H427.613ZM402.813 480.6L402.111 479.887C385.847 495.889 359.76 504 323.613 504V505V506C359.998 506 386.711 497.844 403.514 481.313L402.813 480.6ZM323.613 505V504C303.679 504 285.223 502.007 268.241 498.026L268.013 499L267.784 499.974C284.935 503.993 303.546 506 323.613 506V505ZM587.878 381.8V380.8H587.677L587.492 380.877L587.878 381.8ZM587.878 380.2L587.492 381.123L587.677 381.2H587.878V380.2ZM556.278 356.6L555.429 357.128L555.437 357.141L555.446 357.155L556.278 356.6ZM540.278 238.6L539.571 239.307L539.571 239.307L540.278 238.6ZM494.278 226.2L493.547 226.882L493.559 226.895L493.571 226.907L494.278 226.2ZM582.278 207.8L582.995 207.103L582.995 207.103L582.278 207.8ZM603.878 348.2L603.037 348.741L603.048 348.758L603.06 348.775L603.878 348.2ZM627.078 360.2L627.173 359.204L627.164 359.204L627.155 359.203L627.078 360.2ZM641.078 367L640.347 367.682L640.371 367.708L640.396 367.731L641.078 367ZM641.078 395.4L641.785 396.107L641.785 396.107L641.078 395.4ZM627.078 401.8L627.155 402.797L627.164 402.796L627.173 402.795L627.078 401.8ZM603.878 414.2L603.051 413.638L603.046 413.645L603.878 414.2ZM582.278 554.2L582.995 554.897L582.995 554.897L582.278 554.2ZM494.278 563.4L494.985 562.693L494.278 563.4ZM494.278 535.8L493.571 535.093L493.559 535.105L493.547 535.118L494.278 535.8ZM540.278 523.4L540.985 524.107L540.985 524.107L540.278 523.4ZM556.278 405.8L555.439 405.256L555.435 405.262L556.278 405.8ZM587.878 381.8V382.8C588.299 382.8 588.798 382.694 589.185 382.307C589.572 381.92 589.678 381.421 589.678 381H588.678H587.678C587.678 381.113 587.651 381.013 587.771 380.893C587.891 380.773 587.991 380.8 587.878 380.8V381.8ZM588.678 381H589.678C589.678 380.579 589.572 380.08 589.185 379.693C588.798 379.306 588.299 379.2 587.878 379.2V380.2V381.2C587.991 381.2 587.891 381.227 587.771 381.107C587.651 380.987 587.678 380.887 587.678 381H588.678ZM587.878 380.2L588.264 379.277C573.713 373.192 563.367 365.43 557.11 356.045L556.278 356.6L555.446 357.155C561.989 366.97 572.71 374.941 587.492 381.123L587.878 380.2ZM556.278 356.6L557.127 356.072C551.13 346.424 548.078 333.032 548.078 315.8H547.078H546.078C546.078 333.234 549.16 347.043 555.429 357.128L556.278 356.6ZM547.078 315.8H548.078V271.8H547.078H546.078V315.8H547.078ZM547.078 271.8H548.078C548.078 262.965 547.51 255.725 546.358 250.099C545.211 244.502 543.46 240.368 540.985 237.893L540.278 238.6L539.571 239.307C541.629 241.365 543.278 245.031 544.398 250.501C545.513 255.942 546.078 263.035 546.078 271.8H547.078ZM540.278 238.6L540.985 237.893C538.525 235.433 534.644 233.676 529.496 232.524C524.332 231.369 517.785 230.8 509.878 230.8V231.8V232.8C517.705 232.8 524.091 233.365 529.06 234.476C534.045 235.591 537.498 237.234 539.571 239.307L540.278 238.6ZM509.878 231.8V230.8H507.878V231.8V232.8H509.878V231.8ZM507.878 231.8V230.8C502.807 230.8 498.529 229.037 494.985 225.493L494.278 226.2L493.571 226.907C497.494 230.83 502.283 232.8 507.878 232.8V231.8ZM494.278 226.2L495.009 225.518C491.444 221.698 489.678 217.273 489.678 212.2H488.678H487.678C487.678 217.794 489.646 222.702 493.547 226.882L494.278 226.2ZM488.678 212.2H489.678C489.678 207.129 491.442 202.851 494.985 199.307L494.278 198.6L493.571 197.893C489.648 201.816 487.678 206.604 487.678 212.2H488.678ZM494.278 198.6L494.985 199.307C498.529 195.763 502.807 194 507.878 194V193V192C502.283 192 497.494 193.97 493.571 197.893L494.278 198.6ZM507.878 193V194H535.078V193V192H507.878V193ZM535.078 193V194C556.829 194 572.235 198.912 581.561 208.497L582.278 207.8L582.995 207.103C573.121 196.955 557.061 192 535.078 192V193ZM582.278 207.8L581.561 208.497C590.891 218.086 595.678 234.164 595.678 257H596.678H597.678C597.678 233.97 592.865 217.247 582.995 207.103L582.278 207.8ZM596.678 257H595.678V313.8H596.678H597.678V257H596.678ZM596.678 313.8H595.678C595.678 329.333 598.082 341.033 603.037 348.741L603.878 348.2L604.719 347.659C600.075 340.434 597.678 329.2 597.678 313.8H596.678ZM603.878 348.2L603.06 348.775C608.331 356.266 616.365 360.379 627.001 361.197L627.078 360.2L627.155 359.203C616.991 358.421 609.559 354.534 604.696 347.624L603.878 348.2ZM627.078 360.2L626.983 361.195C632.348 361.706 636.786 363.866 640.347 367.682L641.078 367L641.809 366.318C637.904 362.134 633.009 359.76 627.173 359.204L627.078 360.2ZM641.078 367L640.396 367.731C644.188 371.27 646.078 375.67 646.078 381H647.078H648.078C648.078 375.13 645.968 370.196 641.76 366.269L641.078 367ZM647.078 381H646.078C646.078 386.332 644.186 390.878 640.371 394.693L641.078 395.4L641.785 396.107C645.971 391.922 648.078 386.868 648.078 381H647.078ZM641.078 395.4L640.371 394.693C636.813 398.251 632.368 400.292 626.983 400.805L627.078 401.8L627.173 402.795C632.988 402.242 637.876 400.016 641.785 396.107L641.078 395.4ZM627.078 401.8L627.001 400.803C616.351 401.622 608.316 405.879 603.051 413.638L603.878 414.2L604.706 414.761C609.573 407.588 617.005 403.578 627.155 402.797L627.078 401.8ZM603.878 414.2L603.046 413.645C598.08 421.094 595.678 432.671 595.678 448.2H596.678H597.678C597.678 432.795 600.076 421.706 604.71 414.755L603.878 414.2ZM596.678 448.2H595.678V505H596.678H597.678V448.2H596.678ZM596.678 505H595.678C595.678 527.836 590.891 543.914 581.561 553.503L582.278 554.2L582.995 554.897C592.865 544.753 597.678 528.03 597.678 505H596.678ZM582.278 554.2L581.561 553.503C572.235 563.088 556.829 568 535.078 568V569V570C557.061 570 573.121 565.045 582.995 554.897L582.278 554.2ZM535.078 569V568H507.878V569V570H535.078V569ZM507.878 569V568C502.807 568 498.529 566.237 494.985 562.693L494.278 563.4L493.571 564.107C497.494 568.03 502.283 570 507.878 570V569ZM494.278 563.4L494.985 562.693C491.442 559.149 489.678 554.871 489.678 549.8H488.678H487.678C487.678 555.396 489.648 560.184 493.571 564.107L494.278 563.4ZM488.678 549.8H489.678C489.678 544.727 491.444 540.302 495.009 536.482L494.278 535.8L493.547 535.118C489.646 539.298 487.678 544.206 487.678 549.8H488.678ZM494.278 535.8L494.985 536.507C498.529 532.963 502.807 531.2 507.878 531.2V530.2V529.2C502.283 529.2 497.494 531.17 493.571 535.093L494.278 535.8ZM507.878 530.2V531.2H509.878V530.2V529.2H507.878V530.2ZM509.878 530.2V531.2C517.785 531.2 524.332 530.631 529.496 529.476C534.644 528.324 538.525 526.567 540.985 524.107L540.278 523.4L539.571 522.693C537.498 524.766 534.045 526.409 529.06 527.524C524.091 528.635 517.705 529.2 509.878 529.2V530.2ZM540.278 523.4L540.985 524.107C543.46 521.632 545.211 517.498 546.358 511.901C547.51 506.275 548.078 499.035 548.078 490.2H547.078H546.078C546.078 498.965 545.513 506.058 544.398 511.499C543.278 516.969 541.629 520.635 539.571 522.693L540.278 523.4ZM547.078 490.2H548.078V446.2H547.078H546.078V490.2H547.078ZM547.078 446.2H548.078C548.078 428.965 551.131 415.714 557.121 406.338L556.278 405.8L555.435 405.262C549.159 415.086 546.078 428.768 546.078 446.2H547.078ZM556.278 405.8L557.117 406.344C563.375 396.696 573.719 388.805 588.264 382.723L587.878 381.8L587.492 380.877C572.704 387.062 561.981 395.17 555.439 405.256L556.278 405.8Z" fill="black" mask="url(#path-2-outside-1_4001_2)"/>
</svg>
